<svg width="21" height="27" viewBox="0 0 21 27" fill="none" xmlns="http://www.w3.org/2000/svg">
<path d="M5.65783 0L9.20086 7.88145L14.9411 5.41507L12.4967 0H9.68974L11.6563 4.43565L10.7554 4.8328L8.6131 0H5.65783ZM20.2254 4.27086L5.01514 10.8587L5.67431 12.4077L20.9505 5.82705L20.2254 4.27086ZM16.3968 9.68318L15.0839 10.3149C15.787 10.6115 16.5121 11.0674 17.1878 11.1718C18.182 10.4522 16.9186 9.49642 16.3968 9.68318ZM13.0625 10.2929L11.074 11.2103C10.4203 12.221 10.261 13.7371 10.0743 15.0389C11.2058 16.6923 11.7496 18.4666 12.244 20.2024C13.2273 19.9992 14.0128 19.8289 14.9191 19.5707C13.5788 17.4449 12.6011 15.2641 11.9749 13.0394C11.9749 13.0394 12.2825 12.4627 12.4363 12.1715C13.09 12.5725 13.8041 12.8527 14.4467 12.7154C14.996 12.4901 15.6277 12.2814 15.9683 11.8035C15.0015 11.4245 13.9304 10.8422 13.0625 10.2929ZM18.1491 11.7541C17.5558 12.0727 16.8857 12.3693 16.3968 12.7923C16.1056 13.0504 15.7321 13.2756 15.2707 13.4679C15.3311 13.8689 15.2652 14.5445 15.7156 14.5006C16.8417 14.16 17.9403 13.6766 18.995 12.9406C18.9895 12.4352 18.5556 11.6167 18.1491 11.7541ZM13.1943 13.6327C13.815 15.5443 14.7104 17.4229 15.9024 19.2686C16.1606 19.1807 16.4133 19.0873 16.644 18.9939C16.243 18.6534 16.0013 18.1205 15.9848 17.6042C15.0729 17.379 14.8422 15.9892 15.04 15.3191C14.5181 14.9346 14.2929 14.3248 14.26 13.7426C13.8645 13.781 13.5129 13.7371 13.1943 13.6327ZM18.8687 14.204C18.1216 14.6489 17.3526 14.9895 16.5835 15.2586L16.0892 15.5003C15.8475 15.753 15.842 16.3573 16.1441 16.6154C16.6769 16.8077 18.8961 15.4509 19.3136 15.0829C19.385 14.7643 19.1213 14.2644 18.8687 14.204ZM9.0855 15.3685L-3.05176e-05 17.4833V26.2283C5.25684 24.8386 8.06929 23.6411 11.5189 21.2736C10.9257 19.1862 10.3929 17.1647 9.0855 15.3685ZM19.4015 16.2968C18.6544 16.8571 17.9074 17.1867 17.045 17.4724C17.023 17.8404 17.1823 18.4666 17.7096 18.3512C18.8027 18.115 19.7036 17.39 19.7201 16.9999C19.7311 16.7967 19.6102 16.4232 19.4015 16.2968ZM18.9895 18.9665C18.204 19.4169 17.2592 19.8399 16.4242 20.142L17.4514 21.8888L19.6102 20.8561L18.9895 18.9665ZM20.209 21.6636L17.7865 22.8226L17.9568 24.0256C18.7863 24.053 20.5166 23.4049 21 22.5919V22.5864L20.209 21.6636Z" fill="white"/>
</svg>
