<svg width="14" height="14" viewBox="0 0 14 14" fill="none" xmlns="http://www.w3.org/2000/svg">
<path d="M5.25 0C5.01794 0 4.79538 0.0921872 4.63128 0.256282C4.46719 0.420376 4.375 0.642936 4.375 0.875V4.375H0.875C0.642936 4.375 0.420376 4.46719 0.256282 4.63128C0.0921872 4.79538 0 5.01794 0 5.25V8.75C0 8.98206 0.0921872 9.20462 0.256282 9.36872C0.420376 9.53281 0.642936 9.625 0.875 9.625H4.375V13.125C4.375 13.3571 4.46719 13.5796 4.63128 13.7437C4.79538 13.9078 5.01794 14 5.25 14H8.75C8.98206 14 9.20462 13.9078 9.36872 13.7437C9.53281 13.5796 9.625 13.3571 9.625 13.125V9.625H13.125C13.3571 9.625 13.5796 9.53281 13.7437 9.36872C13.9078 9.20462 14 8.98206 14 8.75V5.25C14 5.01794 13.9078 4.79538 13.7437 4.63128C13.5796 4.46719 13.3571 4.375 13.125 4.375H9.625V0.875C9.625 0.642936 9.53281 0.420376 9.36872 0.256282C9.20462 0.0921872 8.98206 0 8.75 0H5.25Z" fill="white"/>
</svg>
