<svg width="20" height="20" viewBox="0 0 20 20" fill="none" xmlns="http://www.w3.org/2000/svg">
<path d="M7.5 0C7.16848 0 6.85054 0.131696 6.61612 0.366117C6.3817 0.600537 6.25 0.918479 6.25 1.25V6.25H1.25C0.918479 6.25 0.600537 6.3817 0.366117 6.61612C0.131696 6.85054 0 7.16848 0 7.5V12.5C0 12.8315 0.131696 13.1495 0.366117 13.3839C0.600537 13.6183 0.918479 13.75 1.25 13.75H6.25V18.75C6.25 19.0815 6.3817 19.3995 6.61612 19.6339C6.85054 19.8683 7.16848 20 7.5 20H12.5C12.8315 20 13.1495 19.8683 13.3839 19.6339C13.6183 19.3995 13.75 19.0815 13.75 18.75V13.75H18.75C19.0815 13.75 19.3995 13.6183 19.6339 13.3839C19.8683 13.1495 20 12.8315 20 12.5V7.5C20 7.16848 19.8683 6.85054 19.6339 6.61612C19.3995 6.3817 19.0815 6.25 18.75 6.25H13.75V1.25C13.75 0.918479 13.6183 0.600537 13.3839 0.366117C13.1495 0.131696 12.8315 0 12.5 0H7.5Z" fill="white"/>
</svg>
