<svg width="163" height="53" viewBox="0 0 163 53" fill="none" xmlns="http://www.w3.org/2000/svg">
<g filter="url(#filter0_d_4_267)">
<rect x="7" y="3" width="39" height="39" rx="3" fill="#00386C"/>
</g>
<path d="M55.05 11.374C55.5727 11.318 56.0533 11.276 56.492 11.248C56.94 11.2107 57.3553 11.192 57.738 11.192C57.9527 11.892 58.2 12.6247 58.48 13.39C58.76 14.1553 59.054 14.9253 59.362 15.7C59.6793 16.4747 60.0013 17.2213 60.328 17.94C60.8133 16.8947 61.2753 15.8213 61.714 14.72C62.162 13.6187 62.6007 12.4473 63.03 11.206C63.534 11.206 64.0333 11.22 64.528 11.248C65.0227 11.276 65.4427 11.3133 65.788 11.36C65.788 11.8733 65.788 12.4847 65.788 13.194C65.7973 13.894 65.802 14.65 65.802 15.462C65.8113 16.2647 65.8207 17.0673 65.83 17.87C65.8393 18.6727 65.8487 19.4287 65.858 20.138C65.8673 20.8473 65.8813 21.4587 65.9 21.972C65.6853 21.9813 65.424 21.9907 65.116 22C64.808 22.0093 64.486 22.014 64.15 22.014C63.814 22.0233 63.5013 22.028 63.212 22.028C63.2493 21.0853 63.2773 20.1427 63.296 19.2C63.3147 18.248 63.3287 17.324 63.338 16.428C63.3567 15.532 63.366 14.7013 63.366 13.936C62.974 15.0373 62.568 16.0873 62.148 17.086C61.7373 18.0847 61.2987 19.0693 60.832 20.04L58.676 20.166C58.144 19.0087 57.6493 17.9027 57.192 16.848C56.7347 15.784 56.3287 14.7947 55.974 13.88L56.282 22.028L54.7 21.972C54.728 21.4773 54.756 20.9127 54.784 20.278C54.812 19.6433 54.8353 18.976 54.854 18.276C54.882 17.576 54.9053 16.8807 54.924 16.19C54.952 15.49 54.9753 14.8273 54.994 14.202C55.0127 13.5673 55.0267 13.0073 55.036 12.522C55.0453 12.0273 55.05 11.6447 55.05 11.374ZM71.4735 22.07C70.7361 22.07 70.0688 21.8973 69.4715 21.552C68.8741 21.2067 68.3981 20.74 68.0435 20.152C67.6981 19.564 67.5255 18.9107 67.5255 18.192C67.5255 17.6227 67.6328 17.0907 67.8475 16.596C68.0621 16.1013 68.3608 15.6673 68.7435 15.294C69.1355 14.9113 69.5835 14.6173 70.0875 14.412C70.5915 14.1973 71.1281 14.09 71.6975 14.09C72.4348 14.09 73.1021 14.2627 73.6995 14.608C74.2968 14.9533 74.7681 15.42 75.1135 16.008C75.4681 16.5867 75.6455 17.24 75.6455 17.968C75.6455 18.5373 75.5381 19.0693 75.3235 19.564C75.1088 20.0587 74.8055 20.4973 74.4135 20.88C74.0308 21.2533 73.5875 21.5473 73.0835 21.762C72.5888 21.9673 72.0521 22.07 71.4735 22.07ZM71.8795 20.936C72.3741 20.936 72.7615 20.726 73.0415 20.306C73.3215 19.8767 73.4615 19.284 73.4615 18.528C73.4615 17.8933 73.3681 17.3287 73.1815 16.834C72.9948 16.3393 72.7381 15.9473 72.4115 15.658C72.0848 15.3687 71.7115 15.224 71.2915 15.224C70.7968 15.224 70.4095 15.4387 70.1295 15.868C69.8495 16.288 69.7095 16.876 69.7095 17.632C69.7095 18.2573 69.8028 18.822 69.9895 19.326C70.1761 19.8207 70.4328 20.2127 70.7595 20.502C71.0955 20.7913 71.4688 20.936 71.8795 20.936ZM77.324 22.028C77.3147 21.7293 77.3053 21.3187 77.296 20.796C77.2867 20.264 77.2773 19.6527 77.268 18.962C77.268 18.262 77.2633 17.5107 77.254 16.708C77.254 15.896 77.254 15.0607 77.254 14.202C77.4593 14.202 77.7113 14.2067 78.01 14.216C78.3087 14.216 78.6073 14.2207 78.906 14.23C79.214 14.2393 79.466 14.2487 79.662 14.258C79.662 14.4913 79.662 14.7293 79.662 14.972C80.4553 14.384 81.2627 14.09 82.084 14.09C82.84 14.09 83.4513 14.356 83.918 14.888C84.3847 15.42 84.7207 16.2693 84.926 17.436C85.1407 18.6027 85.248 20.1333 85.248 22.028C85.0333 22.028 84.7767 22.0233 84.478 22.014C84.1793 22.014 83.8853 22.0093 83.596 22C83.3067 21.9907 83.0547 21.9813 82.84 21.972C82.84 20.32 82.7933 18.9993 82.7 18.01C82.6067 17.0207 82.4527 16.3067 82.238 15.868C82.0233 15.4293 81.734 15.21 81.37 15.21C81.0713 15.21 80.768 15.336 80.46 15.588C80.152 15.84 79.886 16.1713 79.662 16.582C79.6527 17.3753 79.6433 18.1267 79.634 18.836C79.634 19.5453 79.6293 20.1753 79.62 20.726C79.6107 21.2673 79.6013 21.6827 79.592 21.972C79.3027 21.9813 78.948 21.9907 78.528 22C78.1173 22.0187 77.716 22.028 77.324 22.028ZM90.8635 22.07C90.4808 22.07 90.0468 22.042 89.5615 21.986C89.0761 21.9207 88.5955 21.8413 88.1195 21.748C87.6435 21.6453 87.2235 21.538 86.8595 21.426L87.4755 19.732C87.8301 19.9373 88.2221 20.1333 88.6515 20.32C89.0901 20.4973 89.5195 20.642 89.9395 20.754C90.3595 20.866 90.7188 20.922 91.0175 20.922C91.4188 20.922 91.7128 20.8333 91.8995 20.656C92.0861 20.4693 92.1795 20.2733 92.1795 20.068C92.1795 19.8253 92.0768 19.6247 91.8715 19.466C91.6661 19.298 91.3955 19.1533 91.0595 19.032C90.7328 18.9013 90.3781 18.78 89.9955 18.668C89.6501 18.5653 89.3048 18.4533 88.9595 18.332C88.6141 18.2107 88.2968 18.0707 88.0075 17.912C87.7275 17.744 87.4988 17.5433 87.3215 17.31C87.1535 17.0767 87.0695 16.7967 87.0695 16.47C87.0695 16.05 87.2188 15.6627 87.5175 15.308C87.8161 14.944 88.2408 14.65 88.7915 14.426C89.3421 14.202 89.9955 14.09 90.7515 14.09C91.3675 14.09 91.9881 14.1693 92.6135 14.328C93.2481 14.4867 93.8268 14.7107 94.3495 15L93.5655 16.33C93.0521 16.0033 92.5528 15.7373 92.0675 15.532C91.5915 15.3173 91.1388 15.21 90.7095 15.21C90.2988 15.21 89.9861 15.2987 89.7715 15.476C89.5568 15.6533 89.4495 15.8353 89.4495 16.022C89.4495 16.1993 89.5335 16.3487 89.7015 16.47C89.8695 16.582 90.0935 16.68 90.3735 16.764C90.6628 16.848 90.9708 16.932 91.2975 17.016C91.6615 17.1 92.0348 17.2027 92.4175 17.324C92.8001 17.436 93.1548 17.5807 93.4815 17.758C93.8081 17.9353 94.0695 18.164 94.2655 18.444C94.4615 18.7147 94.5595 19.0553 94.5595 19.466C94.5595 19.97 94.4008 20.418 94.0835 20.81C93.7661 21.202 93.3275 21.51 92.7675 21.734C92.2168 21.958 91.5821 22.07 90.8635 22.07ZM97.1465 22.028C97.1372 21.832 97.1279 21.5193 97.1185 21.09C97.1185 20.6513 97.1139 20.1287 97.1045 19.522C97.1045 18.9153 97.0999 18.2573 97.0905 17.548C97.0905 16.8387 97.0905 16.1107 97.0905 15.364H95.5645L95.4805 14.076H97.0765C97.0765 13.1333 97.0765 12.242 97.0765 11.402C97.4219 11.402 97.8232 11.4067 98.2805 11.416C98.7472 11.4253 99.1485 11.4393 99.4845 11.458C99.4845 12.2607 99.4845 13.1333 99.4845 14.076H101.081L100.997 15.364H99.4705C99.4705 16.092 99.4659 16.8107 99.4565 17.52C99.4565 18.22 99.4519 18.8687 99.4425 19.466C99.4425 20.0633 99.4379 20.5813 99.4285 21.02C99.4285 21.4587 99.4239 21.776 99.4145 21.972C99.0972 21.9907 98.7472 22.0047 98.3645 22.014C97.9819 22.0233 97.5759 22.028 97.1465 22.028ZM105.713 22.07C104.957 22.07 104.275 21.8973 103.669 21.552C103.071 21.1973 102.595 20.7213 102.241 20.124C101.895 19.5173 101.723 18.8313 101.723 18.066C101.723 17.3007 101.891 16.6193 102.227 16.022C102.572 15.4247 103.039 14.9533 103.627 14.608C104.224 14.2627 104.901 14.09 105.657 14.09C106.366 14.09 107.001 14.2487 107.561 14.566C108.13 14.874 108.587 15.308 108.933 15.868C109.287 16.428 109.497 17.086 109.563 17.842L104.005 18.878C104.182 19.4847 104.462 19.9793 104.845 20.362C105.227 20.7353 105.657 20.922 106.133 20.922C106.571 20.922 107.005 20.7727 107.435 20.474C107.864 20.166 108.195 19.774 108.429 19.298L109.423 20.138C108.965 20.754 108.415 21.23 107.771 21.566C107.127 21.902 106.441 22.07 105.713 22.07ZM103.823 17.506C103.823 17.562 103.823 17.6087 103.823 17.646L107.085 17.198C107.019 16.6007 106.828 16.12 106.511 15.756C106.193 15.392 105.806 15.21 105.349 15.21C104.873 15.21 104.499 15.4153 104.229 15.826C103.958 16.2273 103.823 16.7873 103.823 17.506ZM113.242 22.028C112.916 22.028 112.542 22.0187 112.122 22C111.712 21.9907 111.329 21.9813 110.974 21.972C110.965 21.692 110.956 21.2907 110.946 20.768C110.937 20.2453 110.928 19.6387 110.918 18.948C110.918 18.248 110.914 17.5013 110.904 16.708C110.904 15.9053 110.904 15.0887 110.904 14.258C111.11 14.2487 111.362 14.2393 111.66 14.23C111.959 14.2207 112.258 14.216 112.556 14.216C112.855 14.2067 113.107 14.202 113.312 14.202C113.312 14.4727 113.312 14.7433 113.312 15.014C113.676 14.7247 114.05 14.5007 114.432 14.342C114.824 14.174 115.202 14.09 115.566 14.09C116.042 14.09 116.476 14.2207 116.868 14.482C117.26 14.734 117.578 15.0793 117.82 15.518C118.072 15.9567 118.217 16.4513 118.254 17.002C117.881 17.1233 117.508 17.2307 117.134 17.324C116.761 17.4173 116.406 17.492 116.07 17.548C116.07 17.128 116.014 16.7407 115.902 16.386C115.8 16.0313 115.66 15.7467 115.482 15.532C115.305 15.3173 115.109 15.21 114.894 15.21C114.642 15.21 114.362 15.364 114.054 15.672C113.746 15.98 113.499 16.358 113.312 16.806C113.303 17.9913 113.294 19.0507 113.284 19.984C113.275 20.908 113.261 21.5893 113.242 22.028ZM58.592 38.07C58.0787 38.07 57.5467 38 56.996 37.86C56.4547 37.72 55.9367 37.5287 55.442 37.286C54.9567 37.034 54.546 36.7493 54.21 36.432C54.4247 36.124 54.6627 35.816 54.924 35.508C55.1853 35.1907 55.4747 34.878 55.792 34.57C56.156 34.962 56.5573 35.326 56.996 35.662C57.4347 35.9887 57.8733 36.2547 58.312 36.46C58.76 36.6653 59.1707 36.768 59.544 36.768C59.88 36.768 60.1787 36.6793 60.44 36.502C60.7107 36.3153 60.846 36.0493 60.846 35.704C60.846 35.3773 60.72 35.088 60.468 34.836C60.216 34.5747 59.8847 34.3367 59.474 34.122C59.0727 33.898 58.6433 33.6787 58.186 33.464C57.7847 33.2773 57.388 33.0813 56.996 32.876C56.604 32.6707 56.2447 32.4467 55.918 32.204C55.6007 31.9613 55.344 31.6907 55.148 31.392C54.9613 31.084 54.868 30.7387 54.868 30.356C54.868 29.9733 54.966 29.6 55.162 29.236C55.3673 28.872 55.652 28.5453 56.016 28.256C56.38 27.9573 56.8093 27.724 57.304 27.556C57.808 27.3787 58.3587 27.29 58.956 27.29C59.6373 27.29 60.3233 27.4067 61.014 27.64C61.714 27.8733 62.3207 28.2093 62.834 28.648C62.666 28.9653 62.4373 29.278 62.148 29.586C61.868 29.894 61.5927 30.1553 61.322 30.37C60.7527 29.8287 60.188 29.376 59.628 29.012C59.068 28.6387 58.5407 28.452 58.046 28.452C57.682 28.452 57.4067 28.5453 57.22 28.732C57.0427 28.9093 56.954 29.1007 56.954 29.306C56.954 29.53 57.0567 29.7353 57.262 29.922C57.4673 30.1087 57.738 30.2907 58.074 30.468C58.41 30.6453 58.7787 30.8273 59.18 31.014C59.6 31.21 60.0247 31.42 60.454 31.644C60.8927 31.868 61.294 32.1247 61.658 32.414C62.0313 32.694 62.33 33.016 62.554 33.38C62.778 33.744 62.89 34.1593 62.89 34.626C62.89 35.0927 62.7733 35.536 62.54 35.956C62.316 36.3667 62.0033 36.7307 61.602 37.048C61.21 37.3653 60.7527 37.6173 60.23 37.804C59.7167 37.9813 59.1707 38.07 58.592 38.07ZM66.7135 27.402C66.6948 27.934 66.6808 28.4567 66.6715 28.97C66.6621 29.4833 66.6575 29.9593 66.6575 30.398C66.6575 31.8727 66.6995 33.0813 66.7835 34.024C66.8768 34.9573 67.0168 35.676 67.2035 36.18C67.3901 36.6747 67.6375 37.0013 67.9455 37.16L66.9655 38.28C66.4615 38.224 66.0368 38.0607 65.6915 37.79C65.3555 37.51 65.0848 37.0947 64.8795 36.544C64.6741 35.984 64.5248 35.2607 64.4315 34.374C64.3475 33.4873 64.3055 32.4047 64.3055 31.126C64.3055 30.594 64.3101 30.0153 64.3195 29.39C64.3381 28.7553 64.3568 28.1113 64.3755 27.458C64.6461 27.4393 64.9681 27.4253 65.3415 27.416C65.7148 27.4067 66.1721 27.402 66.7135 27.402ZM71.6978 38.07C70.9045 38.07 70.2558 37.8787 69.7518 37.496C69.2572 37.104 69.0098 36.5953 69.0098 35.97C69.0098 35.4007 69.2152 34.8733 69.6258 34.388C70.0458 33.9027 70.6245 33.492 71.3618 33.156C72.0992 32.8107 72.9438 32.5727 73.8958 32.442C73.5598 31.6207 73.0978 31.21 72.5098 31.21C72.1552 31.21 71.6978 31.3453 71.1378 31.616C70.5778 31.8867 70.0085 32.2413 69.4298 32.68L69.0098 31.28C70.4005 30.4867 71.7165 30.09 72.9578 30.09C73.9285 30.09 74.7078 30.356 75.2958 30.888C75.8838 31.4107 76.3132 32.2507 76.5838 33.408C76.8545 34.556 76.9898 36.0773 76.9898 37.972C76.8125 37.9813 76.4952 37.9907 76.0378 38C75.5898 38.0187 75.1045 38.028 74.5818 38.028C74.5818 37.7293 74.5772 37.4353 74.5678 37.146C73.6065 37.762 72.6498 38.07 71.6978 38.07ZM71.3198 35.872C71.3198 36.1613 71.4318 36.39 71.6558 36.558C71.8892 36.726 72.1972 36.81 72.5798 36.81C73.2518 36.81 73.9005 36.5207 74.5258 35.942C74.4698 34.9527 74.3625 34.1173 74.2038 33.436C73.8398 33.5107 73.4852 33.632 73.1398 33.8C72.8038 33.968 72.4958 34.1687 72.2158 34.402C71.9452 34.626 71.7258 34.8687 71.5578 35.13C71.3992 35.382 71.3198 35.6293 71.3198 35.872ZM78.6044 39.848L78.4644 38.532C78.959 38.504 79.4024 38.4387 79.7944 38.336C80.1957 38.2427 80.5597 38.0933 80.8864 37.888C80.4944 37.104 80.0977 36.2687 79.6964 35.382C79.295 34.4953 78.9124 33.6227 78.5484 32.764C78.1937 31.896 77.8857 31.1027 77.6244 30.384C77.9604 30.328 78.3804 30.272 78.8844 30.216C79.3884 30.16 79.883 30.1133 80.3684 30.076C80.6017 30.7947 80.9097 31.658 81.2924 32.666C81.675 33.674 82.0904 34.7333 82.5384 35.844C82.8464 35.2187 83.1404 34.4393 83.4204 33.506C83.7004 32.5727 84.0037 31.448 84.3304 30.132L86.0244 30.328C85.567 32.008 85.0864 33.4453 84.5824 34.64C84.0877 35.8253 83.5464 36.796 82.9584 37.552C82.3797 38.308 81.731 38.868 81.0124 39.232C80.2937 39.596 79.491 39.8013 78.6044 39.848ZM90.6522 38.07C89.8962 38.07 89.2149 37.8973 88.6082 37.552C88.0109 37.1973 87.5349 36.7213 87.1802 36.124C86.8349 35.5173 86.6622 34.8313 86.6622 34.066C86.6622 33.3007 86.8302 32.6193 87.1662 32.022C87.5115 31.4247 87.9782 30.9533 88.5662 30.608C89.1635 30.2627 89.8402 30.09 90.5962 30.09C91.3055 30.09 91.9402 30.2487 92.5002 30.566C93.0695 30.874 93.5269 31.308 93.8722 31.868C94.2269 32.428 94.4369 33.086 94.5022 33.842L88.9442 34.878C89.1215 35.4847 89.4015 35.9793 89.7842 36.362C90.1669 36.7353 90.5962 36.922 91.0722 36.922C91.5109 36.922 91.9449 36.7727 92.3742 36.474C92.8035 36.166 93.1349 35.774 93.3682 35.298L94.3622 36.138C93.9049 36.754 93.3542 37.23 92.7102 37.566C92.0662 37.902 91.3802 38.07 90.6522 38.07ZM88.7622 33.506C88.7622 33.562 88.7622 33.6087 88.7622 33.646L92.0242 33.198C91.9589 32.6007 91.7675 32.12 91.4502 31.756C91.1329 31.392 90.7455 31.21 90.2882 31.21C89.8122 31.21 89.4389 31.4153 89.1682 31.826C88.8975 32.2273 88.7622 32.7873 88.7622 33.506ZM98.1818 38.028C97.8552 38.028 97.4818 38.0187 97.0618 38C96.6512 37.9907 96.2685 37.9813 95.9138 37.972C95.9045 37.692 95.8952 37.2907 95.8858 36.768C95.8765 36.2453 95.8672 35.6387 95.8578 34.948C95.8578 34.248 95.8532 33.5013 95.8438 32.708C95.8438 31.9053 95.8438 31.0887 95.8438 30.258C96.0492 30.2487 96.3012 30.2393 96.5998 30.23C96.8985 30.2207 97.1972 30.216 97.4958 30.216C97.7945 30.2067 98.0465 30.202 98.2518 30.202C98.2518 30.4727 98.2518 30.7433 98.2518 31.014C98.6158 30.7247 98.9892 30.5007 99.3718 30.342C99.7638 30.174 100.142 30.09 100.506 30.09C100.982 30.09 101.416 30.2207 101.808 30.482C102.2 30.734 102.517 31.0793 102.76 31.518C103.012 31.9567 103.156 32.4513 103.194 33.002C102.82 33.1233 102.447 33.2307 102.074 33.324C101.7 33.4173 101.346 33.492 101.01 33.548C101.01 33.128 100.954 32.7407 100.842 32.386C100.739 32.0313 100.599 31.7467 100.422 31.532C100.244 31.3173 100.048 31.21 99.8338 31.21C99.5818 31.21 99.3018 31.364 98.9938 31.672C98.6858 31.98 98.4385 32.358 98.2518 32.806C98.2425 33.9913 98.2332 35.0507 98.2238 35.984C98.2145 36.908 98.2005 37.5893 98.1818 38.028ZM115.301 38.07C114.367 38.07 113.537 37.8507 112.809 37.412C112.09 36.9733 111.525 36.3667 111.115 35.592C110.704 34.8173 110.499 33.926 110.499 32.918C110.499 32.0967 110.634 31.3453 110.905 30.664C111.185 29.9733 111.577 29.376 112.081 28.872C112.585 28.368 113.177 27.9807 113.859 27.71C114.549 27.43 115.305 27.29 116.127 27.29C116.957 27.29 117.718 27.43 118.409 27.71C119.109 27.99 119.645 28.368 120.019 28.844C119.403 29.544 118.782 30.104 118.157 30.524C117.503 29.18 116.598 28.508 115.441 28.508C114.666 28.508 114.059 28.8113 113.621 29.418C113.182 30.0153 112.963 30.8553 112.963 31.938C112.963 32.61 113.042 33.24 113.201 33.828C113.369 34.416 113.593 34.9387 113.873 35.396C114.153 35.844 114.475 36.1987 114.839 36.46C115.212 36.712 115.609 36.838 116.029 36.838C116.346 36.838 116.621 36.7727 116.855 36.642C117.097 36.502 117.237 36.3293 117.275 36.124C117.265 35.9187 117.247 35.6667 117.219 35.368C117.2 35.06 117.172 34.738 117.135 34.402C117.107 34.066 117.079 33.7393 117.051 33.422C116.257 33.4033 115.674 33.38 115.301 33.352L115.259 32.288C116.239 32.288 117.172 32.2787 118.059 32.26C118.955 32.2413 119.739 32.2133 120.411 32.176L120.369 33.464C120.051 33.464 119.743 33.464 119.445 33.464C119.473 33.8653 119.491 34.3367 119.501 34.878C119.519 35.41 119.529 35.9373 119.529 36.46C119.183 36.7867 118.777 37.0713 118.311 37.314C117.844 37.5567 117.354 37.7433 116.841 37.874C116.327 38.0047 115.814 38.07 115.301 38.07ZM124.299 38.07C123.506 38.07 122.857 37.8787 122.353 37.496C121.859 37.104 121.611 36.5953 121.611 35.97C121.611 35.4007 121.817 34.8733 122.227 34.388C122.647 33.9027 123.226 33.492 123.963 33.156C124.701 32.8107 125.545 32.5727 126.497 32.442C126.161 31.6207 125.699 31.21 125.111 31.21C124.757 31.21 124.299 31.3453 123.739 31.616C123.179 31.8867 122.61 32.2413 122.031 32.68L121.611 31.28C123.002 30.4867 124.318 30.09 125.559 30.09C126.53 30.09 127.309 30.356 127.897 30.888C128.485 31.4107 128.915 32.2507 129.185 33.408C129.456 34.556 129.591 36.0773 129.591 37.972C129.414 37.9813 129.097 37.9907 128.639 38C128.191 38.0187 127.706 38.028 127.183 38.028C127.183 37.7293 127.179 37.4353 127.169 37.146C126.208 37.762 125.251 38.07 124.299 38.07ZM123.921 35.872C123.921 36.1613 124.033 36.39 124.257 36.558C124.491 36.726 124.799 36.81 125.181 36.81C125.853 36.81 126.502 36.5207 127.127 35.942C127.071 34.9527 126.964 34.1173 126.805 33.436C126.441 33.5107 126.087 33.632 125.741 33.8C125.405 33.968 125.097 34.1687 124.817 34.402C124.547 34.626 124.327 34.8687 124.159 35.13C124.001 35.382 123.921 35.6293 123.921 35.872ZM133.622 38.028C133.416 38.028 133.164 38.0233 132.866 38.014C132.567 38.014 132.278 38.0093 131.998 38C131.727 37.9907 131.512 37.9813 131.354 37.972C131.354 36.8053 131.354 35.704 131.354 34.668C131.363 33.632 131.372 32.7267 131.382 31.952C131.4 31.168 131.414 30.5847 131.424 30.202C131.722 30.202 132.072 30.2067 132.474 30.216C132.875 30.2253 133.234 30.2393 133.552 30.258C133.561 30.454 133.57 30.72 133.58 31.056C134.345 30.412 135.11 30.09 135.876 30.09C136.268 30.09 136.608 30.174 136.898 30.342C137.187 30.51 137.43 30.7807 137.626 31.154C138.363 30.4447 139.166 30.09 140.034 30.09C141.032 30.09 141.77 30.608 142.246 31.644C142.731 32.68 142.974 34.276 142.974 36.432C142.974 36.684 142.969 36.9313 142.96 37.174C142.96 37.4073 142.95 37.664 142.932 37.944C142.67 37.9813 142.32 38.0093 141.882 38.028C141.443 38.0467 140.99 38.056 140.524 38.056C140.552 37.664 140.57 37.244 140.58 36.796C140.598 36.348 140.608 35.9047 140.608 35.466C140.608 34.0193 140.519 32.9507 140.342 32.26C140.174 31.56 139.912 31.21 139.558 31.21C139.315 31.21 139.049 31.3547 138.76 31.644C138.48 31.9333 138.256 32.2927 138.088 32.722C138.162 33.1607 138.214 33.6693 138.242 34.248C138.279 34.8173 138.298 35.4567 138.298 36.166C138.298 36.782 138.284 37.384 138.256 37.972C138.069 37.9813 137.831 37.9907 137.542 38C137.262 38.0093 136.968 38.014 136.66 38.014C136.361 38.0233 136.09 38.028 135.848 38.028C135.876 37.5333 135.894 37.0013 135.904 36.432C135.922 35.8627 135.932 35.3213 135.932 34.808C135.932 33.9213 135.904 33.2167 135.848 32.694C135.801 32.162 135.717 31.784 135.596 31.56C135.484 31.3267 135.325 31.21 135.12 31.21C134.868 31.21 134.597 31.3593 134.308 31.658C134.028 31.9567 133.79 32.3253 133.594 32.764C133.603 33.4827 133.608 34.2947 133.608 35.2C133.617 36.096 133.622 37.0387 133.622 38.028ZM148.299 38.07C147.543 38.07 146.861 37.8973 146.255 37.552C145.657 37.1973 145.181 36.7213 144.827 36.124C144.481 35.5173 144.309 34.8313 144.309 34.066C144.309 33.3007 144.477 32.6193 144.813 32.022C145.158 31.4247 145.625 30.9533 146.213 30.608C146.81 30.2627 147.487 30.09 148.243 30.09C148.952 30.09 149.587 30.2487 150.147 30.566C150.716 30.874 151.173 31.308 151.519 31.868C151.873 32.428 152.083 33.086 152.149 33.842L146.591 34.878C146.768 35.4847 147.048 35.9793 147.431 36.362C147.813 36.7353 148.243 36.922 148.719 36.922C149.157 36.922 149.591 36.7727 150.021 36.474C150.45 36.166 150.781 35.774 151.015 35.298L152.009 36.138C151.551 36.754 151.001 37.23 150.357 37.566C149.713 37.902 149.027 38.07 148.299 38.07ZM146.409 33.506C146.409 33.562 146.409 33.6087 146.409 33.646L149.671 33.198C149.605 32.6007 149.414 32.12 149.097 31.756C148.779 31.392 148.392 31.21 147.935 31.21C147.459 31.21 147.085 31.4153 146.815 31.826C146.544 32.2273 146.409 32.7873 146.409 33.506Z" fill="#0A0A0A"/>
<path d="M23.7263 13.7998H19.6334C19.2191 13.7998 19.0036 14.3249 19.2841 14.651C19.5734 14.9872 19.8714 15.4242 20.0878 15.9638C20.2488 16.3651 20.5001 16.7231 20.848 16.9519C21.3649 17.2917 22.2375 17.6208 23.5847 17.4392L23.7263 13.7998Z" fill="#BFC29F"/>
<path d="M23.6905 14.7211H22.0627C21.8686 14.7211 21.759 14.9743 21.8768 15.1506C22.1558 15.5682 22.705 16.1535 23.6309 16.2533L23.6905 14.7211Z" fill="#9B9B6E"/>
<path d="M23.448 18.9263C23.448 18.9263 23.6854 21.7385 20.3055 23.2435C20.3055 23.2435 17.9335 24.3045 17.034 26.325C16.8935 26.6407 16.9854 27.0151 17.254 27.2326C17.9904 27.8288 19.4688 29.2614 20.0377 31.5196C20.1352 31.9067 20.3237 32.2644 20.5909 32.5608C21.4772 33.5444 23.7302 35.3271 27.9674 34.5195C29.2562 34.2739 30.456 33.6643 31.3974 32.7506C32.4905 31.6898 33.7406 29.9796 34.0296 27.5474C34.0704 27.2045 33.955 26.8618 33.7223 26.6066C32.9822 25.7946 31.1945 23.9527 29.4248 23.0326L23.448 18.9263Z" fill="url(#paint0_linear_4_267)"/>
<path d="M22.3706 21.8595L22.1517 22.6759C25.8143 25.4853 27.3557 31.8998 27.8507 34.5398C27.8899 34.5327 27.9279 34.527 27.9674 34.5195C28.5535 34.4077 29.1194 34.2171 29.6529 33.9605C28.3426 25.1748 22.3706 21.8595 22.3706 21.8595Z" fill="#9B9B6E"/>
<path d="M32.4666 26.0475L33.8173 26.7265C33.788 26.6849 33.7569 26.6445 33.7224 26.6066C33.4496 26.3074 33.0337 25.8677 32.5296 25.3863C32.5294 25.3861 32.5293 25.386 32.5291 25.3859C32.3212 25.1874 32.0976 24.9819 31.8632 24.7759C31.124 24.1263 30.273 23.4736 29.4249 23.0326L23.448 18.9263C23.448 18.9263 23.448 18.9265 23.4478 18.9268C23.17 19.6797 23.5916 20.8515 24.2213 21.8595C24.6673 22.5734 25.6685 23.3784 26.456 23.6753L31.6229 25.6234L30.7408 28.7342L31.3988 32.7492C31.9357 32.2281 32.5099 31.5493 32.9899 30.7061C32.7557 29.6468 31.9694 28.5419 31.9694 28.5419C32.2422 27.6269 32.3882 26.7269 32.4666 26.0475Z" fill="#9B9B6E"/>
<path d="M33.1149 18.646C33.1285 18.4946 33.1365 18.3417 33.1365 18.1868V12.5966C33.1365 9.80382 30.8725 7.53986 28.0797 7.53986C25.287 7.53986 23.023 9.80382 23.023 12.5966V18.1868C23.023 20.9796 25.287 23.2435 28.0797 23.2435H29.9041C31.9114 23.2435 33.5386 21.6163 33.5386 19.609V19.2959C33.5387 19.0054 33.3643 18.7566 33.1149 18.646Z" fill="url(#paint1_linear_4_267)"/>
<path d="M26.0028 14.2553H27.7898C27.9572 14.2553 28.08 14.4144 28.0341 14.5754C27.9549 14.8536 27.7708 15.2385 27.3465 15.4119C27.0439 15.5355 26.6947 15.51 26.4051 15.3585C26.1765 15.2389 25.9109 15.0227 25.7442 14.6341C25.6672 14.4546 25.8075 14.2553 26.0028 14.2553Z" fill="#FCFAFF"/>
<path d="M28.898 16.7046C29.0682 16.7046 29.2061 16.5666 29.2061 16.3965C29.2061 16.2264 29.0682 16.0884 28.898 16.0884C28.7279 16.0884 28.59 16.2264 28.59 16.3965C28.59 16.5666 28.7279 16.7046 28.898 16.7046Z" fill="#9B9B6E"/>
<path d="M29.9455 16.7046C30.1156 16.7046 30.2535 16.5666 30.2535 16.3965C30.2535 16.2264 30.1156 16.0884 29.9455 16.0884C29.7753 16.0884 29.6374 16.2264 29.6374 16.3965C29.6374 16.5666 29.7753 16.7046 29.9455 16.7046Z" fill="#9B9B6E"/>
<path d="M27.3389 13.7008H25.9988C25.8797 13.7008 25.7831 13.6043 25.7831 13.4852V10.304C25.7831 10.1467 25.9106 10.0192 26.068 10.0192C26.1892 10.0192 26.2968 10.0947 26.3365 10.2093C26.4587 10.5622 26.7702 11.3223 27.3095 11.7624C27.4588 11.8843 27.5546 12.0594 27.5546 12.2522V13.4851C27.5546 13.6043 27.4581 13.7008 27.3389 13.7008Z" fill="#C9519C"/>
<path d="M26.1374 16.0268H26.9949C27.1594 16.0268 27.2928 16.1602 27.2928 16.3247C27.2928 16.4161 27.2516 16.5014 27.1799 16.558C26.977 16.7179 26.5537 17.0897 26.3607 17.5417C26.3216 17.6332 26.2297 17.6904 26.1302 17.6904C25.9896 17.6904 25.8756 17.5765 25.8756 17.4358V16.2887C25.8756 16.1441 25.9929 16.0268 26.1374 16.0268Z" fill="#C9519C"/>
<path d="M28.6337 13.318L29.0577 13.7393C29.1398 13.8208 29.2726 13.8199 29.3536 13.7373L29.7672 13.3149C29.8349 13.2459 29.773 13.1308 29.6781 13.1491L29.3768 13.2525C29.2621 13.2919 29.1377 13.2921 29.0229 13.2533L28.7218 13.1513C28.6262 13.1328 28.5647 13.2494 28.6337 13.318Z" fill="#9B9B6E"/>
<path d="M32.8118 14.1756H35.6959C35.9879 14.1756 36.1397 14.5938 35.942 14.8534C35.7382 15.1212 35.5282 15.4692 35.3756 15.8989C35.2622 16.2186 35.0851 16.5037 34.8399 16.6859C34.4757 16.9566 33.8609 17.2187 32.9115 17.0741L32.8118 14.1756Z" fill="#7F7D56"/>
<path d="M29.5181 23.2435H29.9041C31.9115 23.2435 33.5387 21.6163 33.5387 19.609V19.2959C33.5387 19.1019 33.4598 18.9277 33.3338 18.7996H31.6609C31.726 19.7913 31.646 22.1961 29.5181 23.2435Z" fill="#9B9B6E"/>
<path d="M33.3338 18.7996C33.2711 18.7358 33.1977 18.6827 33.1149 18.6459C33.1285 18.4945 33.1365 18.3417 33.1365 18.1867V12.5966C33.1365 10.4607 31.8115 8.63538 29.9393 7.89429C30.5381 8.71488 31.3853 10.6001 31.3847 14.6971H30.2535C30.3016 15.5998 30.932 15.8446 31.3611 15.9071C31.3283 16.7821 31.2607 17.7423 31.1487 18.7995H33.3338V18.7996Z" fill="#9B9B6E"/>
<path d="M32.0292 14.2553H30.2422C30.0748 14.2553 29.9521 14.4144 29.9979 14.5754C30.0772 14.8536 30.2612 15.2385 30.6855 15.4119C30.9881 15.5355 31.3373 15.51 31.627 15.3585C31.8555 15.2389 32.1211 15.0227 32.2878 14.6341C32.3649 14.4546 32.2247 14.2553 32.0292 14.2553Z" fill="#FCFAFF"/>
<path d="M27.0617 18.7995C27.0617 18.7995 27.1185 18.0482 27.5456 17.3382C27.6517 17.1617 27.906 17.1564 28.0133 17.3321C28.2219 17.6742 28.5 18.2338 28.5096 18.7995H27.0617V18.7995Z" fill="#FCFAFF"/>
<path d="M30.8613 18.7995C30.8613 18.7995 30.9182 18.0482 31.3453 17.3382C31.4513 17.1617 31.7057 17.1564 31.813 17.3321C32.0216 17.6742 32.2997 18.2338 32.3093 18.7995H30.8613V18.7995Z" fill="#FCFAFF"/>
<path d="M20.9211 22.8728C21.9207 23.6967 24.5478 26.1191 25.5031 29.5113L26.8833 28.2955C26.8833 28.2955 26.1405 24.9543 22.3706 21.8595C22.1262 21.6589 21.7763 21.6471 21.5215 21.8344L20.9374 22.2635C20.7342 22.4128 20.7266 22.7125 20.9211 22.8728Z" fill="#B77D85"/>
<path d="M31.0047 23.9544C30.9524 24.7091 30.7521 26.4761 29.9882 28.2087L31.1487 29.0191C31.1487 29.0191 32.3106 26.7632 32.2397 24.8273C32.2313 24.5979 32.1175 24.3851 31.9331 24.2486L31.3321 23.8039C31.2013 23.7071 31.016 23.7923 31.0047 23.9544Z" fill="#B77D85"/>
<path d="M25.5032 29.5111L26.8833 28.2954C26.8833 28.2954 26.7845 27.8548 26.4803 27.1472C25.9152 27.505 25.435 27.9577 25.0899 28.3293C25.2477 28.7088 25.3881 29.1025 25.5032 29.5111Z" fill="#9D5D65"/>
<path d="M30.4009 27.112C30.2856 27.4726 30.1503 27.8411 29.9882 28.2086L31.1488 29.0191C31.1488 29.0191 31.3704 28.5889 31.6141 27.943C31.229 27.5089 30.7432 27.2509 30.4009 27.112Z" fill="#9D5D65"/>
<path d="M24.8903 35.4048C26.8118 35.5735 30.8935 35.5403 32.6046 32.5357C32.7309 32.314 32.7795 32.0568 32.7447 31.8039C32.6696 31.2564 32.4442 30.2133 31.7721 29.1849C30.4759 27.2016 27.6521 27.0187 25.9874 28.7045C24.9773 29.7274 23.9048 31.4612 23.8367 34.2394C23.822 34.8435 24.2885 35.352 24.8903 35.4048Z" fill="#C4D5FF"/>
<path d="M30.9223 30.6063L30.4161 30.9825C30.3528 31.0295 30.2637 30.98 30.2701 30.9015L30.3582 29.828C30.3656 29.7395 30.3225 29.6517 30.2443 29.6095C29.5205 29.2185 28.6059 29.2498 27.8837 29.7232C25.9105 31.0166 25.9722 34.4224 26.0401 35.4593C27.862 35.4733 30.4033 35.1352 31.9694 33.4093C31.8769 32.1625 31.6022 31.2895 31.2595 30.678C31.1917 30.5571 31.0336 30.5237 30.9223 30.6063Z" fill="#7E9AEF"/>
<path d="M26.0655 18.9263C26.0655 19.0811 26.191 19.2066 26.3459 19.2066H33.5321C33.5004 18.9553 33.3382 18.745 33.1149 18.6459H26.3459C26.191 18.6459 26.0655 18.7714 26.0655 18.9263Z" fill="#9B9B6E"/>
<defs>
<filter id="filter0_d_4_267" x="0" y="0" width="53" height="53" filterUnits="userSpaceOnUse" color-interpolation-filters="sRGB">
<feFlood flood-opacity="0" result="BackgroundImageFix"/>
<feColorMatrix in="SourceAlpha" type="matrix" values="0 0 0 0 0 0 0 0 0 0 0 0 0 0 0 0 0 0 127 0" result="hardAlpha"/>
<feOffset dy="4"/>
<feGaussianBlur stdDeviation="3.5"/>
<feComposite in2="hardAlpha" operator="out"/>
<feColorMatrix type="matrix" values="0 0 0 0 0 0 0 0 0 0 0 0 0 0 0 0 0 0 0.2 0"/>
<feBlend mode="normal" in2="BackgroundImageFix" result="effect1_dropShadow_4_267"/>
<feBlend mode="normal" in="SourceGraphic" in2="effect1_dropShadow_4_267" result="shape"/>
</filter>
<linearGradient id="paint0_linear_4_267" x1="25.0971" y1="21.4252" x2="26.7229" y2="43.8064" gradientUnits="userSpaceOnUse">
<stop stop-color="#BFC29F"/>
<stop offset="1" stop-color="#9B9B6E"/>
</linearGradient>
<linearGradient id="paint1_linear_4_267" x1="27.7032" y1="9.10285" x2="30.2503" y2="51.6434" gradientUnits="userSpaceOnUse">
<stop stop-color="#BFC29F"/>
<stop offset="1" stop-color="#9B9B6E"/>
</linearGradient>
</defs>
</svg>
