<svg width="23" height="25" viewBox="0 0 23 25" fill="none" xmlns="http://www.w3.org/2000/svg">
<path d="M7.26431 0L8.09963 2.78216L3.22018 0.253605L6.48075 4.26708L0.623631 5.25751L6.48059 6.27219L3.39297 10.1598L6.75524 8.43252L6.66321 11.4749L7.68921 9.54409V6.2238L7.72799 6.13332L9.37764 2.26849L7.26426 0H7.26431ZM14.8259 0L12.9178 2.04864L14.6417 6.13476L14.6805 6.22524V9.83016L15.4819 11.3392L15.3979 8.5247L18.7861 10.2858L15.5255 6.27235L21.3824 5.25772L15.5255 4.26729L18.7861 0.253812L14.0066 2.73072L14.8258 0.000258523L14.8259 0ZM11.1759 0.405355L8.63285 6.32539V14.2619L10.4392 16.0684C10.5899 12.6852 10.8515 9.40195 11.2276 6.36262C11.6209 9.53892 11.8865 13.0207 12.0307 16.5999L13.7175 14.9131V6.3255L11.176 0.405458L11.1759 0.405355ZM3.64162e-05 9.88181L1.93085 14.7451L11.9564 24.7724H13.5495C10.1195 21.2306 6.90652 17.5855 4.21061 14.128C8.07311 17.1395 12.23 20.8666 16.1702 24.7723H17.7763L4.84397 11.8384L-1.52588e-05 9.88176L3.64162e-05 9.88181ZM23 9.88181L18.1592 11.8368L12.1826 17.8134L13.1213 18.7505C14.997 17.0907 16.8603 15.5312 18.66 14.1279C17.2484 15.9383 15.6943 17.7999 14.0424 19.6714L15.094 20.7217L21.0674 14.7484L22.9998 9.88176L23 9.88181ZM7.90724 22.0886L5.22353 24.7723H6.70193C7.35319 24.1268 8.01075 23.4862 8.67152 22.8529L7.90735 22.0885L7.90724 22.0886ZM9.94306 24.126C9.73651 24.3418 9.52928 24.5573 9.32107 24.7723H10.5894L9.94306 24.126Z" fill="white"/>
</svg>
