<svg width="22" height="23" viewBox="0 0 22 23" fill="none" xmlns="http://www.w3.org/2000/svg">
<path d="M15.3011 5.12443e-05C14.9808 -0.00144912 14.6992 0.0300585 14.4513 0.0864628C13.3176 0.344103 12.7429 1.11717 12.063 2.01616C11.3831 2.91521 10.5946 3.93818 9.11944 4.24186C7.72387 4.5289 5.81044 4.17598 2.85566 2.78097C2.38619 4.88523 1.28937 8.81149 0 11.1575C2.81754 12.4938 4.55946 12.7951 5.67325 12.6051C5.67371 12.6051 5.67418 12.6053 5.67465 12.6051C6.68693 12.3319 7.29162 11.663 7.91938 10.5847C8.71711 9.21434 9.44614 7.19959 10.7443 4.80885L11.5135 5.22792C10.731 6.66898 10.1631 7.97626 9.63805 9.11654C10.039 8.81121 10.5117 8.56468 11.0945 8.43228C12.3937 8.13708 14.1446 8.40907 16.7984 9.59271C16.4734 8.22007 16.7101 6.68984 17.2614 5.26895C17.8562 3.73624 18.8105 2.31947 19.9002 1.32909C17.9031 0.412323 16.4704 0.0371853 15.4402 0.00305202C15.3928 0.00150477 15.3467 0.000332537 15.3009 9.81049e-05L15.3011 5.12443e-05ZM21.281 0.663212C21.2407 0.662039 21.1988 0.666119 21.1561 0.675683C20.9508 0.721491 20.7369 0.883108 20.5895 1.19598L12.1523 22.4174H13.2593L21.5972 1.41508C21.7601 0.939044 21.562 0.671464 21.2809 0.663258L21.281 0.663212Z" fill="white"/>
</svg>
